<svg width="22" height="22" viewBox="0 0 22 22" fill="none" xmlns="http://www.w3.org/2000/svg">
    <path d="M19.6469 4.45591L14.1469 18.6642C14.0925 18.805 14.0042 18.9301 13.8899 19.0285C13.7755 19.1269 13.6386 19.1956 13.4914 19.2284C13.3441 19.2612 13.191 19.2572 13.0457 19.2167C12.9004 19.1761 12.7673 19.1004 12.6583 18.9961L9.5581 16.0307L7.65693 17.9309C7.59278 17.9949 7.51112 18.0384 7.42226 18.0559C7.3334 18.0735 7.24133 18.0644 7.15766 18.0296C7.074 17.9949 7.0025 17.9362 6.9522 17.8609C6.90189 17.7855 6.87503 17.697 6.87501 17.6064V13.464L2.1166 8.91274C1.99853 8.79979 1.91281 8.65733 1.86829 8.50012C1.82378 8.34291 1.82209 8.17665 1.86341 8.01857C1.90473 7.86049 1.98756 7.71632 2.10331 7.601C2.21906 7.48568 2.36353 7.40339 2.52176 7.36266L18.5634 3.23766C18.7265 3.19588 18.898 3.19982 19.059 3.24905C19.22 3.29828 19.3643 3.3909 19.4761 3.51675C19.5879 3.64259 19.663 3.79681 19.6929 3.96247C19.7229 4.12814 19.7067 4.29886 19.646 4.45591H19.6469ZM17.4167 5.50091L7.36268 12.056L8.9531 13.5777L17.4167 5.50091Z"
          fill="black"/>
</svg>
