<svg width="13" height="13" viewBox="0 0 13 13" fill="none" xmlns="http://www.w3.org/2000/svg">
    <path d="M9.69828 5.02242V4.65776C9.69828 2.65655 8.13414 1.03448 6.2069 1.03448C4.27966 1.03448 2.71552 2.65655 2.71552 4.65776V5.02242C2.71614 5.4577 2.59192 5.88404 2.35759 6.25086L1.78449 7.14311C1.26156 7.95776 1.66087 9.06518 2.57069 9.32276C4.94809 9.99603 7.46572 9.99603 9.84311 9.32276C10.7529 9.06518 11.1522 7.95776 10.6293 7.14362L10.0562 6.25138C9.8217 5.88461 9.6973 5.45827 9.69776 5.02293L9.69828 5.02242Z"
          stroke="black"/>
    <path d="M3.8793 9.82759C4.2181 10.7317 5.13206 11.3793 6.20689 11.3793C7.28172 11.3793 8.19568 10.7317 8.53448 9.82759"
          stroke="black" stroke-linecap="round"/>
</svg>
