<svg width="18" height="18" viewBox="0 0 18 18" fill="none" xmlns="http://www.w3.org/2000/svg">
    <path d="M6.94125 2.14535C7.5314 1.69104 8.25524 1.4447 9 1.4447C9.74476 1.4447 10.4686 1.69104 11.0588 2.14535L14.9963 5.17497C15.4059 5.49031 15.7376 5.89553 15.9658 6.35937C16.194 6.82321 16.3126 7.33328 16.3125 7.85022V12.9375C16.3125 13.8326 15.9569 14.691 15.324 15.324C14.6911 15.9569 13.8326 16.3125 12.9375 16.3125H5.0625C4.16739 16.3125 3.30895 15.9569 2.67601 15.324C2.04308 14.691 1.6875 13.8326 1.6875 12.9375V7.85022C1.68736 7.33328 1.80598 6.82321 2.03419 6.35937C2.26241 5.89553 2.59412 5.49031 3.00375 5.17497L6.94125 2.14535ZM7.875 8.99997C7.09875 8.99997 6.46875 9.62997 6.46875 10.4062V14.625H11.5312V10.4062C11.5312 9.62997 10.9012 8.99997 10.125 8.99997H7.875Z" fill="white" fill-opacity="1"/>
</svg>
