<svg width="220" height="63" viewBox="0 0 220 63" fill="none" xmlns="http://www.w3.org/2000/svg">
    <path fill-rule="evenodd" clip-rule="evenodd"
          d="M11.0576 15.9037C13.6422 14.2721 16.3358 11.8011 20.916 10.1267C17.5632 10.1453 12.2907 12.2412 11.0576 15.9037Z"
          fill="#CFA550"/>
    <path fill-rule="evenodd" clip-rule="evenodd"
          d="M14.0336 16.4313C13.4893 16.6728 13.0881 16.8276 12.637 16.9354C11.796 17.136 11.0944 17.1947 10.3715 17.435C9.78977 17.6269 9.32084 17.9119 8.91133 18.2548C8.5374 18.5666 8.26187 18.8516 8.0469 19.1574C7.75926 19.567 7.49774 20.1305 7.35771 20.6732C8.44392 19.1461 9.75872 18.3907 10.932 18.22C8.88786 19.3156 8.20207 20.4458 7.25098 21.3938V21.4457C7.59084 21.1013 7.89703 20.8379 8.22517 20.6017C8.7274 20.2391 9.22168 19.9844 9.76024 19.7615C10.1531 19.5991 10.4994 19.447 10.8234 19.2838C12.2415 18.5689 13.073 17.5251 14.0336 16.4313Z"
          fill="#CFA550"/>
    <path fill-rule="evenodd" clip-rule="evenodd"
          d="M7.23817 21.468C7.23817 21.443 7.23893 21.4177 7.23969 21.3919L7.22341 21.4419L7.23817 21.468ZM7.52089 20.2247C7.85546 19.3448 8.4137 18.416 8.78877 17.9713C9.19297 17.4929 9.48553 16.9532 9.7603 16.3927C10.247 15.4008 10.6622 14.2672 10.7958 13.407C10.1774 13.7798 9.56426 14.1427 8.86787 14.6654C7.41114 15.8341 6.5959 17.0891 6.78741 18.8089C6.84721 19.349 6.8756 20.4208 7.08489 21.1043C7.00617 18.7559 7.8108 17.1164 8.86105 16.2402C7.8846 17.9149 7.72943 19.1136 7.52089 20.2247Z"
          fill="#CFA550"/>
    <path fill-rule="evenodd" clip-rule="evenodd"
          d="M9.81728 21.6503C9.33927 21.9762 8.98087 22.1945 8.56341 22.3739C7.78528 22.71 7.11046 22.8837 6.45646 23.238C5.93039 23.5222 5.53603 23.8802 5.21319 24.2833C4.9195 24.6512 4.71436 24.9755 4.57433 25.3116C4.37071 25.7987 4.23863 26.4595 4.24695 27.053C4.98308 25.3029 6.11698 24.2712 7.23649 23.8511C5.67795 25.1814 5.16058 26.3119 4.55957 27.3361C4.7295 27.0995 4.89906 26.8936 5.08186 26.6987C5.49099 26.2601 5.91639 25.9281 6.39326 25.6212C6.74145 25.3972 7.04612 25.1909 7.32543 24.9771C8.55281 24.0419 9.12695 22.8815 9.81728 21.6503Z"
          fill="#CFA550"/>
    <path fill-rule="evenodd" clip-rule="evenodd"
          d="M4.31318 27.7118C4.27684 27.5596 4.2583 27.3874 4.25451 27.2028C4.253 27.342 4.24846 27.4821 4.239 27.6232C4.26322 27.655 4.2882 27.6849 4.31318 27.7118ZM4.25489 27.0347C4.27873 25.9943 4.70451 24.6341 5.02848 24.027C5.31499 23.4903 5.47735 22.9116 5.61776 22.3163C5.8668 21.2642 6.01326 20.0841 5.94476 19.2185C5.42436 19.6852 4.90623 20.1431 4.34458 20.7703C3.18495 22.1577 2.67477 23.5236 3.25837 25.1783C3.40863 25.6052 3.62095 26.3871 3.89307 27.0056C3.48319 24.9785 3.90064 23.3866 4.66742 22.3825C4.00472 24.4903 4.24543 25.7585 4.25489 27.0347Z"
          fill="#CFA550"/>
    <path fill-rule="evenodd" clip-rule="evenodd"
          d="M7.28358 26.8761C6.89678 27.3518 6.59703 27.68 6.22007 27.9831C5.51763 28.5493 4.86439 28.9142 4.30047 29.4667C3.84744 29.9114 3.56132 30.3959 3.36868 30.9125C3.19345 31.3829 3.09656 31.7826 3.07272 32.1781C3.03525 32.8041 3.16544 33.6269 3.44286 34.2903C3.54921 32.0638 4.42424 30.5484 5.4885 29.7604C4.08399 31.8776 4.13508 33.2598 3.62641 34.6665C3.64761 34.7032 3.66918 34.7396 3.69189 34.7748C3.81376 34.2869 3.95379 33.8933 4.13168 33.5179C4.4038 32.9418 4.73193 32.4748 5.12478 32.0199C5.41128 31.6876 5.6588 31.3871 5.8768 31.0854C6.83244 29.7604 7.00957 28.3714 7.28358 26.8761Z"
          fill="#CFA550"/>
    <path fill-rule="evenodd" clip-rule="evenodd"
          d="M3.69273 34.8024C3.5966 34.6487 3.51182 34.4693 3.43802 34.2718C3.4876 34.4197 3.53377 34.57 3.57503 34.7244C3.61477 34.7532 3.65412 34.7793 3.69273 34.8024ZM3.3733 34.0859C3.01337 32.9732 2.95849 31.4196 3.0762 30.6884C3.17952 30.0416 3.13638 29.3827 3.06333 28.7109C2.93465 27.524 2.64815 26.2285 2.25264 25.3258C1.8738 25.9624 1.49381 26.588 1.12972 27.4063C0.414037 29.1942 0.382246 30.7841 1.62249 32.3892C1.95214 32.8165 2.49487 33.6295 3.03268 34.2203C1.68419 32.141 1.47716 30.1971 1.91429 28.7756C2.04335 31.3961 2.86009 32.6572 3.3733 34.0859Z"
          fill="#CFA550"/>
    <path fill-rule="evenodd" clip-rule="evenodd"
          d="M6.10575 33.0231C5.83893 33.5696 5.62131 33.9515 5.32043 34.3232C4.75953 35.0169 4.19789 35.5006 3.77249 36.1561C3.42997 36.6826 3.26609 37.2196 3.20364 37.771C3.14612 38.2736 3.15066 38.6922 3.22673 39.0919C3.35541 39.7713 3.73502 40.6425 4.22741 41.27C3.61012 38.8247 4.10857 36.957 5.02182 35.8586C4.09684 38.425 4.60058 39.7697 4.333 41.3987C4.38788 41.4623 4.44351 41.5228 4.50066 41.5796C4.49991 41.0694 4.54116 40.6508 4.62404 40.2425C4.75083 39.6161 4.96278 39.0896 5.24133 38.5632C5.44419 38.179 5.61564 37.8327 5.75794 37.4917C6.3809 35.9934 6.20832 34.5696 6.10575 33.0231Z"
          fill="#CFA550"/>
    <path fill-rule="evenodd" clip-rule="evenodd"
          d="M3.70715 40.3935C3.2299 39.4103 2.90933 38.2291 2.8537 37.6008C2.79503 36.9339 2.58536 36.2818 2.34314 35.6229C1.91395 34.4576 1.30197 33.2124 0.677868 32.3798C0.459112 33.0864 0.23619 33.7805 0.0783673 34.6665C-0.187319 36.5846 0.180932 38.1818 1.82766 39.5655C2.42943 40.0722 3.61782 41.2356 4.42889 41.577C2.02446 39.8179 1.0957 37.7492 1.12447 36.085C1.88481 38.3017 2.87073 39.324 3.70715 40.3935Z"
          fill="#CFA550"/>
    <path fill-rule="evenodd" clip-rule="evenodd"
          d="M6.23641 38.8976C6.16904 39.5322 6.08994 39.9845 5.92114 40.45C5.60701 41.316 5.21264 41.9673 5.02303 42.758C4.87164 43.393 4.90646 43.991 5.05103 44.5761C5.1835 45.1105 5.34699 45.5393 5.57673 45.9303C6.00402 46.6566 6.82568 47.5373 7.64242 48.0365C5.91887 45.7539 5.62555 43.5887 6.10243 42.051C6.24625 45.1226 7.35932 46.2883 7.77072 48.1118L7.83393 48.1462C7.63977 47.6205 7.52282 47.1777 7.45243 46.7345C7.34608 46.0559 7.36349 45.4549 7.45053 44.8376C7.51336 44.3865 7.55916 43.9838 7.57543 43.5936C7.6481 41.8807 6.92939 40.4614 6.23641 38.8976Z"
          fill="#CFA550"/>
    <path fill-rule="evenodd" clip-rule="evenodd"
          d="M7.85157 48.1727C7.66157 48.0698 7.46552 47.9362 7.26909 47.7806C7.39664 47.8953 7.52191 48.016 7.64529 48.1443C7.71758 48.1576 7.78647 48.1674 7.85157 48.1727ZM6.90955 47.4737C5.91303 46.5627 4.96081 45.2116 4.62586 44.4966C4.31135 43.8249 3.84735 43.2114 3.34739 42.5982C2.46441 41.5147 1.36003 40.3997 0.401367 39.7116C0.443756 40.4989 0.478193 41.274 0.652668 42.2292C1.10721 44.2768 2.09351 45.8224 4.31475 46.7989C5.08872 47.1391 6.63516 47.9494 7.61464 48.1387C4.39764 46.9949 2.7195 45.0265 2.229 43.2015C3.96883 45.6896 5.53948 46.3644 6.90955 47.4737Z"
          fill="#CFA550"/>
    <path fill-rule="evenodd" clip-rule="evenodd"
          d="M8.62354 44.7519C8.80936 45.449 8.90815 45.9546 8.91685 46.4989C8.9335 47.5147 8.77644 48.3231 8.8949 49.2205C8.9899 49.9415 9.26997 50.5693 9.66169 51.1518C10.019 51.682 10.3664 52.0923 10.7702 52.4428C11.5347 53.1066 12.8034 53.8215 13.8907 54.105C11.3122 52.4443 10.1862 50.4297 10.0579 48.7924C11.358 51.7104 12.8632 52.453 13.9305 54.1152C13.9789 54.1273 14.027 54.1387 14.0746 54.1493C13.6549 53.6448 13.3503 53.2077 13.0967 52.7554C12.7072 52.0624 12.4828 51.4175 12.325 50.7332C12.2099 50.2344 12.0956 49.7916 11.9541 49.37C11.3375 47.5226 9.99625 46.2188 8.62354 44.7519Z"
          fill="#CFA550"/>
    <path fill-rule="evenodd" clip-rule="evenodd"
          d="M14.104 54.1729C14.023 54.1547 13.9397 54.1331 13.8549 54.1081C9.9279 53.9511 7.38383 52.371 6.18369 50.5263C8.56579 52.324 10.3597 52.7566 12.0152 53.2793C10.8378 52.6056 9.70196 51.7321 9.17475 51.1894C8.56768 50.5653 7.82512 50.0449 7.04358 49.537C5.66216 48.6389 4.03285 47.7695 2.73242 47.315C3.09651 48.1412 3.44773 48.9587 4.02036 49.9264C5.33517 51.9777 7.01254 53.3391 9.77652 53.7353C10.8211 53.8848 13.0601 54.3602 14.104 54.1729Z"
          fill="#CFA550"/>
    <path fill-rule="evenodd" clip-rule="evenodd"
          d="M13.6304 50.2439C14.0478 50.7765 14.3438 51.1947 14.5743 51.6307C14.5531 51.5432 14.5342 51.4547 14.5164 51.3657C14.4698 51.1292 14.4388 50.8873 14.4323 50.6451C14.1674 50.5127 13.8995 50.3794 13.6304 50.2439ZM15.3857 53.6078C15.5254 53.9552 15.6786 54.294 15.8834 54.6338C16.1884 55.1395 16.5752 55.5664 17.0218 55.9403V54.1971C16.9265 54.2845 16.8107 54.3522 16.6786 54.3935C16.2974 54.5131 15.8997 54.3772 15.6718 54.0495C15.5708 53.9049 15.4758 53.7577 15.3857 53.6078Z"
          fill="#CFA550"/>
    <path fill-rule="evenodd" clip-rule="evenodd"
          d="M17.019 56.5074C16.1114 56.0725 15.1084 55.7788 14.0714 55.509C12.22 55.0264 10.1213 54.6487 8.55029 54.5859C9.29777 55.302 10.0271 56.0142 11.0565 56.8105C12.8849 58.1333 14.7633 58.9459 17.019 58.9962V58.1375C15.5297 57.837 14.3564 57.206 13.5332 56.4169C14.8885 57.0168 16.016 57.3082 17.019 57.4683V56.5074Z"
          fill="#CFA550"/>
    <path fill-rule="evenodd" clip-rule="evenodd"
          d="M44.9398 15.9037C42.3553 14.2721 39.6613 11.8011 35.0811 10.1267C38.4343 10.1453 43.7064 12.2412 44.9398 15.9037Z"
          fill="#CFA550"/>
    <path fill-rule="evenodd" clip-rule="evenodd"
          d="M41.9653 16.4313C42.51 16.6728 42.9111 16.8276 43.3623 16.9354C44.2028 17.136 44.9045 17.1947 45.6274 17.435C46.2091 17.6269 46.6784 17.9119 47.0875 18.2548C47.4615 18.5666 47.737 18.8516 47.952 19.1574C48.2396 19.567 48.5011 20.1305 48.6412 20.6732C47.5553 19.1461 46.2402 18.3907 45.0673 18.22C47.111 19.3156 47.7972 20.4458 48.7483 21.3938V21.4457C48.4084 21.1013 48.1018 20.8379 47.7737 20.6017C47.2719 20.2391 46.7776 19.9844 46.2386 19.7615C45.8462 19.5991 45.4995 19.447 45.1759 19.2838C43.7578 18.5689 42.9263 17.5251 41.9653 16.4313Z"
          fill="#CFA550"/>
    <path fill-rule="evenodd" clip-rule="evenodd"
          d="M48.7618 21.4679C48.7622 21.4429 48.7615 21.4176 48.7603 21.3918L48.777 21.4418L48.7618 21.4679ZM48.4791 20.2246C48.1449 19.3447 47.5863 18.4159 47.2112 17.9712C46.807 17.4928 46.5145 16.9531 46.2397 16.3926C45.753 15.4006 45.3378 14.2671 45.2046 13.4068C45.8226 13.7796 46.4361 14.1426 47.1321 14.6653C48.5893 15.834 49.4041 17.089 49.213 18.8088C49.1532 19.3488 49.1248 20.4207 48.9151 21.1042C48.9942 18.7558 48.1896 17.1162 47.1389 16.2401C48.1158 17.9148 48.271 19.1134 48.4791 20.2246Z"
          fill="#CFA550"/>
    <path fill-rule="evenodd" clip-rule="evenodd"
          d="M46.1821 21.6504C46.6601 21.9763 47.0182 22.1947 47.436 22.3741C48.2138 22.7101 48.8886 22.8839 49.5426 23.2381C50.0686 23.5223 50.463 23.8804 50.7862 24.2834C51.0799 24.6513 51.2851 24.9757 51.4247 25.3117C51.6283 25.7988 51.7608 26.4596 51.7525 27.0531C51.0163 25.303 49.8821 24.2713 48.7625 23.8512C50.3215 25.1815 50.8385 26.312 51.4399 27.3362C51.2699 27.0996 51.1004 26.8938 50.9176 26.6988C50.5081 26.2602 50.083 25.9283 49.6058 25.6213C49.2576 25.3973 48.9529 25.191 48.6736 24.9772C47.4462 24.042 46.8725 22.8816 46.1821 21.6504Z"
          fill="#CFA550"/>
    <path fill-rule="evenodd" clip-rule="evenodd"
          d="M51.6871 27.7118C51.7235 27.5596 51.742 27.3874 51.7462 27.2028C51.7473 27.342 51.7522 27.4821 51.7617 27.6232C51.7371 27.655 51.7125 27.6849 51.6871 27.7118ZM51.7458 27.0347C51.722 25.9943 51.2958 24.6341 50.9718 24.027C50.6857 23.4903 50.5233 22.9116 50.3829 22.3163C50.1339 21.2642 49.9874 20.0841 50.0559 19.2185C50.5763 19.6852 51.0941 20.1431 51.6561 20.7703C52.8157 22.1577 53.3255 23.5236 52.7419 25.1783C52.5917 25.6052 52.3794 26.3871 52.1072 27.0056C52.5175 24.9785 52.1 23.3866 51.3333 22.3825C51.9956 24.4903 51.7553 25.7585 51.7458 27.0347Z"
          fill="#CFA550"/>
    <path fill-rule="evenodd" clip-rule="evenodd"
          d="M48.7163 26.8761C49.1031 27.3518 49.4025 27.68 49.7794 27.9831C50.4819 28.5493 51.1351 28.9142 51.699 29.4667C52.1524 29.9114 52.4382 30.3959 52.6312 30.9125C52.8064 31.3829 52.903 31.7826 52.9268 32.1781C52.9646 32.8041 52.8344 33.6269 52.557 34.2903C52.4507 32.0638 51.5753 30.5484 50.511 29.7604C51.9159 31.8776 51.8648 33.2598 52.3731 34.6665C52.3519 34.7032 52.3303 34.7396 52.308 34.7748C52.1857 34.2869 52.0461 33.8933 51.8682 33.5179C51.5961 32.9418 51.268 32.4748 50.8747 32.0199C50.5886 31.6876 50.3411 31.3871 50.1231 31.0854C49.1671 29.7604 48.9903 28.3714 48.7163 26.8761Z"
          fill="#CFA550"/>
    <path fill-rule="evenodd" clip-rule="evenodd"
          d="M52.3076 34.8024C52.4041 34.6487 52.4889 34.4693 52.5627 34.2718C52.5128 34.4197 52.467 34.57 52.4253 34.7244C52.3856 34.7532 52.3462 34.7793 52.3076 34.8024ZM52.6271 34.0859C52.9874 32.9732 53.0419 31.4196 52.9245 30.6884C52.8208 30.0416 52.864 29.3827 52.9374 28.7109C53.0661 27.524 53.3522 26.2285 53.7477 25.3258C54.1266 25.9624 54.5069 26.588 54.8706 27.4063C55.5863 29.1942 55.6181 30.7841 54.3782 32.3892C54.0482 32.8165 53.5059 33.6295 52.9681 34.2203C54.3162 32.141 54.5236 30.1971 54.0864 28.7756C53.957 31.3961 53.1406 32.6572 52.6271 34.0859Z"
          fill="#CFA550"/>
    <path fill-rule="evenodd" clip-rule="evenodd"
          d="M49.8951 33.0231C50.1619 33.5696 50.3796 33.9515 50.6804 34.3232C51.241 35.0169 51.803 35.5006 52.2284 36.1561C52.5705 36.6826 52.7348 37.2196 52.7972 37.771C52.8547 38.2736 52.8502 38.6922 52.7741 39.0919C52.6454 39.7713 52.2659 40.6425 51.7731 41.27C52.3907 38.8247 51.8919 36.957 50.9787 35.8586C51.904 38.425 51.4003 39.7697 51.6675 41.3987C51.613 41.4623 51.5574 41.5228 51.5002 41.5796C51.5006 41.0694 51.4597 40.6508 51.3764 40.2425C51.25 39.6161 51.0381 39.0896 50.7595 38.5632C50.5563 38.179 50.3852 37.8327 50.2429 37.4917C49.6196 35.9934 49.7922 34.5696 49.8951 33.0231Z"
          fill="#CFA550"/>
    <path fill-rule="evenodd" clip-rule="evenodd"
          d="M52.293 40.3934C52.7703 39.4102 53.0905 38.2289 53.1461 37.6007C53.2051 36.9338 53.4144 36.2817 53.657 35.6228C54.0858 34.4575 54.6982 33.2123 55.3219 32.3797C55.5411 33.0863 55.764 33.7804 55.9218 34.6664C56.1875 36.5845 55.8189 38.1816 54.1725 39.5653C53.5704 40.0721 52.3824 41.2355 51.5713 41.5769C53.9753 39.8178 54.9041 37.7491 54.8757 36.0849C54.115 38.3016 53.1291 39.3239 52.293 40.3934Z"
          fill="#CFA550"/>
    <path fill-rule="evenodd" clip-rule="evenodd"
          d="M49.7645 38.8976C49.8319 39.5322 49.911 39.9845 50.0798 40.45C50.3939 41.316 50.7879 41.9673 50.9775 42.758C51.1293 43.393 51.0945 43.991 50.9499 44.5761C50.8174 45.1105 50.6539 45.5393 50.4242 45.9303C49.9969 46.6566 49.1752 47.5373 48.3581 48.0365C50.082 45.7539 50.3754 43.5887 49.8981 42.051C49.7547 45.1226 48.6412 46.2883 48.2298 48.1118L48.167 48.1462C48.3608 47.6205 48.4781 47.1777 48.5481 46.7345C48.6548 46.0559 48.6374 45.4549 48.55 44.8376C48.4872 44.3865 48.4418 43.9838 48.4251 43.5936C48.3524 41.8807 49.0715 40.4614 49.7645 38.8976Z"
          fill="#CFA550"/>
    <path fill-rule="evenodd" clip-rule="evenodd"
          d="M48.1465 48.1727C48.3369 48.0698 48.5325 47.9362 48.7289 47.7806C48.6018 47.8953 48.4765 48.016 48.3527 48.1443C48.2808 48.1576 48.2116 48.1674 48.1465 48.1727ZM49.0885 47.4737C50.085 46.5627 51.0376 45.2116 51.3726 44.4966C51.6871 43.8249 52.1507 43.2114 52.6507 42.5982C53.534 41.5147 54.638 40.3997 55.5971 39.7116C55.5543 40.4989 55.5202 41.274 55.3457 42.2292C54.8908 44.2768 53.9049 45.8224 51.6833 46.7989C50.9093 47.1391 49.3633 47.9494 48.3838 48.1387C51.6008 46.9949 53.2789 45.0265 53.7694 43.2015C52.0296 45.6896 50.4585 46.3644 49.0885 47.4737Z"
          fill="#CFA550"/>
    <path fill-rule="evenodd" clip-rule="evenodd"
          d="M47.3755 44.7519C47.1897 45.449 47.0913 45.9546 47.0826 46.4989C47.0659 47.5147 47.2226 48.3231 47.1042 49.2205C47.0092 49.9415 46.7295 50.5693 46.3378 51.1518C45.9805 51.682 45.6327 52.0923 45.2292 52.4428C44.4643 53.1066 43.1961 53.8215 42.1084 54.105C44.6873 52.4443 45.8132 50.4297 45.9415 48.7924C44.6415 51.7104 43.1363 52.453 42.069 54.1152C42.0206 54.1273 41.9725 54.1387 41.9248 54.1493C42.3445 53.6448 42.6488 53.2077 42.9028 52.7554C43.2922 52.0624 43.5163 51.4175 43.6741 50.7332C43.7895 50.2344 43.9038 49.7916 44.0454 49.37C44.6615 47.5226 46.0028 46.2188 47.3755 44.7519Z"
          fill="#CFA550"/>
    <path fill-rule="evenodd" clip-rule="evenodd"
          d="M41.8926 54.1729C41.9736 54.1547 42.0568 54.1331 42.1416 54.1081C46.0686 53.9511 48.6123 52.371 49.8124 50.5263C47.4304 52.324 45.6368 52.7566 43.9814 53.2793C45.1584 52.6056 46.2946 51.7321 46.8214 51.1894C47.4285 50.5653 48.171 50.0449 48.9526 49.537C50.334 48.6389 51.9633 47.7695 53.2637 47.315C52.8996 48.1412 52.5488 48.9587 51.9762 49.9264C50.661 51.9777 48.984 53.3391 46.22 53.7353C45.1754 53.8848 42.936 54.3602 41.8926 54.1729Z"
          fill="#CFA550"/>
    <path fill-rule="evenodd" clip-rule="evenodd"
          d="M42.371 50.2439C41.8677 50.8858 41.541 51.3616 41.2928 51.9032C40.9578 52.6321 40.7652 53.2808 40.4893 53.9094V51.1958C41.0986 50.8752 41.7299 50.5668 42.371 50.2439Z"
          fill="#CFA550"/>
    <path fill-rule="evenodd" clip-rule="evenodd"
          d="M40.4893 55.9189C40.9567 55.7686 41.4377 55.6362 41.9267 55.509C43.7782 55.0264 45.8772 54.6487 47.4478 54.5859C46.7003 55.302 45.971 56.0142 44.942 56.8105C43.5367 57.8271 42.1019 58.542 40.4893 58.8418V57.6814C41.2822 57.3525 41.9441 56.9165 42.4653 56.4169C41.748 56.7345 41.0944 56.9653 40.4893 57.1364V55.9189Z"
          fill="#CFA550"/>
    <path d="M23.4777 47.6825C23.1224 47.8229 22.9032 47.9391 22.4396 48.0344V56.6734L21.6539 56.0815L20.8182 56.6734V48.4031C19.6605 48.5567 19.0811 48.1877 19.0811 48.1877V60.7654C19.0811 60.7654 20.1639 61.595 23.519 60.2629C26.8738 58.9306 28.4622 60.3631 28.4622 60.6271V48.0465C28.4622 47.7828 26.8325 46.3502 23.4777 47.6825Z"
          fill="#1C1F56"/>
    <path d="M39.0005 48.827V61.3349H18.3856V48.827H17.9224V62.0298C17.9224 62.0298 24.063 62.0298 27.1249 62.0298C27.3959 62.0298 27.9499 62.394 28.7901 62.394C29.6644 62.394 30.0599 62.0298 30.3286 62.0298C33.4154 62.0298 39.5792 62.0298 39.5792 62.0298V48.827H39.0005Z"
          fill="#1C1F56"/>
    <path d="M32.8275 21.3984L32.8903 21.8037C32.5198 21.6902 32.5864 21.7428 32.443 21.3927L32.32 21.56C32.3105 21.5706 32.2836 21.5971 32.267 21.6179C31.5123 21.4597 31.2849 21.5487 31.8946 20.9193C32.3559 20.9359 32.5978 21.1679 32.8275 21.3984ZM32.5913 21.9937L32.7825 22.5191C32.337 22.5334 32.4161 22.5705 32.1966 22.2931L31.7072 22.4577C31.3212 22.4339 31.5823 22.4248 31.4699 22.3699C31.3954 22.0619 31.4915 21.943 31.8363 22.0138C32.4252 22.1342 32.0936 22.1027 32.5913 21.9937ZM22.7439 22.3211C22.5539 22.418 22.5077 22.4241 22.2352 22.379C21.8613 22.3166 21.8378 22.1686 21.7958 22.1137C22.2489 22.071 22.4415 22.0766 22.7439 22.3211ZM26.2099 9.67263C26.1199 9.55757 26.0775 9.84029 26.0779 9.09281L26.0991 4.99738C26.1411 4.76764 26.1259 4.89103 26.2099 4.77332C26.5774 4.97921 26.395 4.84637 26.4037 5.64759L26.3712 6.5071C26.3628 6.77809 26.3678 6.46168 26.4052 6.7796C26.4635 7.27842 26.336 7.14671 26.3731 7.46538C26.4166 7.84007 26.4737 7.45781 26.3939 8.1296C26.3042 8.88995 26.7648 9.37439 26.2099 9.67263ZM28.8085 11.6982C28.8085 11.1926 28.6726 10.3368 29.0984 10.0197C29.1264 10.0428 29.2404 10.0961 29.3005 10.2381C29.383 10.4326 29.335 10.2839 29.3425 10.495C29.3512 10.7721 29.3172 10.6366 29.3198 10.9625L29.355 12.1429C29.0473 12.015 29.1749 12.1145 28.952 11.9204C28.787 11.7762 28.8865 11.9007 28.8085 11.6982ZM29.6086 25.4893C29.4462 26.1475 29.3338 26.5123 28.5424 26.4082C28.1996 25.842 28.2794 25.0533 28.4361 24.3573C28.6022 23.617 28.7835 23.2756 29.1923 22.885C29.6078 23.3846 29.6464 24.7274 29.6086 25.4893ZM19.9584 46.8839C19.9943 46.8256 20.0318 46.7416 20.0715 46.6235C19.9046 46.6636 19.7388 46.7064 19.5784 46.7242C19.659 46.7548 19.7347 46.7942 19.8024 46.8411C19.8463 46.86 19.8997 46.8737 19.9584 46.8839ZM19.8191 22.826C19.9474 22.471 19.6794 22.485 19.8736 22.2148C20.31 22.4899 19.9939 22.9721 19.8619 23.1897C20.5211 24.064 19.9133 23.4073 20.7312 23.994C20.2615 23.9444 20.21 23.6711 19.947 23.4633C18.7904 22.552 19.2745 23.7146 19.0735 22.3431L19.4058 22.952L19.8191 22.826ZM18.3919 22.6947C18.376 22.6773 18.3544 22.6527 18.3468 22.6424L18.2019 22.4358C19.469 22.4339 18.773 22.63 19.0356 23.2397C19.1817 23.5758 19.206 23.3123 19.2116 23.8271C19.1878 23.8176 19.1583 23.8025 19.1412 23.7956C19.1261 23.7888 19.0924 23.7741 19.0735 23.765L18.5618 23.5932C18.6526 23.8331 18.762 23.9788 18.7809 24.3073L18.6859 24.1821C18.4187 23.8361 18.0172 23.6215 17.7307 23.7385C17.6614 23.6091 17.4695 23.9864 17.7322 23.4437C17.1921 23.5515 17.3908 23.5247 17.247 23.4399L17.2474 23.1602C17.5021 23.0247 17.384 23.0773 17.7307 23.0614C17.8128 23.2427 17.5346 23.4584 18.4763 23.5678C18.7669 23.1413 18.882 23.3309 18.8161 22.9108C18.4842 23.0803 18.3764 23.1329 18.027 22.8623L18.3919 22.6947ZM22.2617 28.1352C22.0441 28.0553 21.719 27.7018 21.5555 27.5361C19.9527 25.923 22.1145 25.2671 18.3578 25.4325C18.5716 24.9856 19.0001 24.7929 19.5689 24.517C19.4115 24.5098 19.497 24.6101 19.349 24.4822C19.1696 24.3259 19.3797 23.8059 19.5008 23.6166C19.8206 23.8009 19.8441 23.8607 19.9879 24.3096L20.5261 24.2006C20.6695 24.4595 20.3955 24.2256 20.5261 24.4527C22.018 23.8479 21.7879 24.2737 23.1299 24.3232C23.5054 24.3369 23.6288 24.3482 23.9107 24.5689C22.9649 24.6733 22.7821 24.4917 22.0044 24.4125C21.4416 24.3546 20.8515 24.4928 20.4814 24.8504C22.7428 24.6801 23.4267 24.4474 24.4289 26.1535C24.5954 26.4366 24.7702 26.7288 25.26 26.6792C25.749 26.6293 25.7134 26.3991 25.861 25.9783C25.9658 25.6766 26.185 25.249 26.35 25.0703C26.4397 24.9746 26.5774 24.8588 26.7508 24.8092C27.502 24.5938 27.2288 25.3814 27.5985 26.2466C27.8949 26.9392 27.7798 26.873 27.4892 27.5141C26.5059 27.5251 26.9287 27.0728 26.1335 27.5289C26.2985 27.6337 26.5377 27.8388 26.708 27.9751C26.9207 28.145 26.9964 28.2279 27.1326 28.4819C27.3438 28.8759 27.5297 29.4163 27.4642 29.9314C27.0789 28.7381 26.9563 28.2711 25.3773 27.8112C24.9792 27.6946 23.9921 27.9899 22.686 26.6849C22.2931 26.2928 21.8435 25.7028 20.9904 25.7001C21.048 25.9741 21.2251 26.1221 21.3402 26.3526C21.7743 27.2178 21.8674 27.4767 22.9157 27.7579C23.2011 27.8343 23.449 27.9603 23.6908 28.0239C24.5428 28.2449 23.3854 27.7987 24.1518 28.0054C24.5235 28.1049 25.4057 28.2419 25.6612 28.5227C25.0359 28.4932 24.9769 28.371 24.3085 28.5296C23.7889 28.6537 23.7609 28.7646 23.2889 28.5068C22.3302 27.9876 22.795 28.3301 22.2617 28.1352ZM18.3828 24.0761C18.9425 24.6056 18.7011 24.2381 18.9448 24.4485C19.0902 24.5738 18.9902 24.4947 19.0485 24.6442C18.9429 24.6135 18.7643 24.5734 18.6776 24.5401L18.3828 24.366L18.2901 24.634C17.8843 24.0579 18.3381 24.7819 17.6959 24.3717C17.8253 24.0549 17.8026 24.2146 17.9949 24.1688L18.3828 24.0761ZM23.2889 27.611C22.3522 27.5361 21.8053 26.8654 21.5313 26.1403C22.0297 26.2235 22.1796 26.6747 22.4351 26.9358C22.661 27.1674 22.9895 27.3847 23.2889 27.611ZM16.4234 27.5323L16.403 27.7537C16.9961 27.7034 16.7868 27.7389 16.9408 27.8699C16.5003 27.9649 16.1858 28.1492 15.7448 28.2495C15.7997 27.7579 16.0094 27.6356 16.4234 27.5323ZM21.0268 27.3207L21.3318 27.9327L20.9091 27.9789L21.0268 27.3207ZM21.4707 29.2176C21.2743 28.9527 20.9545 29.1268 20.5658 29.1847L20.9151 28.9508C21.1539 28.8066 21.0616 28.9886 21.1577 28.7513C20.8463 28.6083 21.0643 28.7381 20.8273 28.7722L20.5314 28.757C21.2815 28.0303 22.3223 29.168 23.5781 28.9156C24.1552 28.8002 24.3282 28.5905 25.087 28.6575C25.5219 28.6961 26.1089 28.8671 26.3382 29.2468L25.4961 28.9724C26.9101 29.7104 26.3083 30.7046 24.8857 30.845C23.9353 30.9385 23.8176 30.8466 23.1114 30.5332C22.1966 30.1259 21.7561 30.8999 21.6441 30.9253C20.917 30.8689 20.0806 30.2838 20.6173 29.6669C20.7448 29.665 20.6177 29.6968 20.8989 29.9284C21.2667 29.8815 21.5672 29.928 21.7709 29.6835C21.4283 29.4719 21.6361 29.59 21.2698 29.5722C20.875 29.5545 20.9632 29.6328 20.7789 29.4965C21.2066 29.2861 21.1941 29.5193 21.4707 29.2176ZM19.3782 29.769L20.2623 29.8084L20.2581 30.4389C19.9973 30.5407 19.7479 30.4613 19.3967 30.4378L19.3782 29.769ZM26.5721 31.9191C26.6395 30.6429 26.8749 31.0418 27.0259 30.5002C27.1296 30.1309 26.9699 30.3159 27.1803 30.0185C27.4733 30.4268 27.3109 30.0635 27.0872 31.2337C26.9941 31.722 26.9063 31.4207 26.6433 32.1712C26.638 32.186 26.6187 32.2495 26.6145 32.2363C26.6107 32.2234 26.5952 32.2779 26.5687 32.3245L26.2258 32.1061L26.5721 31.9191ZM17.1743 33.4077C16.6255 33.4644 16.2528 33.0984 15.7305 32.9013L15.763 32.3873C16.0594 32.6727 15.9753 32.7718 16.3542 33.0156C16.7459 33.268 16.8837 33.1726 17.1743 33.4077ZM16.079 34.5934C16.3629 35.1876 16.252 36.3041 16.3409 37.0455C16.4439 37.8948 16.6252 38.5798 16.7853 39.369C16.4246 39.2391 15.8887 38.9897 15.7952 38.6287C15.9492 38.4879 15.7729 38.4145 16.2054 38.5848C16.2357 37.5807 15.8747 37.0084 16.079 34.5934ZM26.705 44.0851C26.9639 43.2396 28.4668 43.5548 27.9539 42.2404L28.9841 41.8059C27.8714 43.813 27.9305 43.6029 26.705 44.0851ZM17.8881 44.1089C17.9263 44.1172 17.9566 44.115 17.9646 44.1498L18.13 44.3822C18.1928 44.5025 18.2204 44.5915 18.2742 44.7016C19.2238 46.6352 18.6265 45.6054 19.6847 46.1557L18.8165 46.3302L17.8881 44.1089ZM25.2755 40.5789C25.9889 40.6353 27.0342 40.1751 27.714 39.9446L29.9905 39.2418C29.539 39.249 28.4213 39.5389 27.77 39.6252C26.7583 39.7595 26.3587 39.7001 25.4049 39.5926C25.5109 40.2902 25.4772 40.0691 25.2755 40.5789ZM26.5498 37.9508C26.6906 38.8569 28.3006 39.1354 29.3516 38.8906C30.3845 38.6506 31.286 37.969 31.8185 37.4338C33.2351 36.0119 33.5863 33.9175 33.5421 31.3632C33.1242 32.0516 33.0118 34.1934 32.1841 35.9385C31.5399 37.298 30.5442 38.1052 28.8195 38.5208C28.7124 38.3372 29.1295 38.3668 28.6174 38.0924C29.4235 37.944 30.1892 37.5538 30.7338 37.1878C31.8719 36.4218 31.9002 36.2526 32.0126 35.426C31.6065 35.6134 31.753 35.6297 31.4393 35.9351C29.1647 38.1533 28.0641 37.6549 26.5498 37.9508ZM15.7596 30.0696L16.0419 30.0601C16.2675 29.8413 16.822 29.7293 17.1558 29.671C17.6258 29.5893 18.1451 29.5598 18.6651 29.5821L18.505 29.4008C18.1932 29.4159 17.8983 29.4258 17.6202 29.4591C17.3087 29.4977 17.1054 29.6063 16.9238 29.4965C17.3889 29.2013 17.3893 29.6294 17.4105 29.0647C16.797 29.2672 16.3432 29.2123 16.2259 29.4965C16.4507 29.5779 16.2365 29.5015 16.4643 29.5272L15.7596 30.0696ZM17.6399 32.9444C17.1391 32.3052 17.0222 31.4199 16.0102 31.3522C16.1998 32.049 17.0267 32.6367 17.6399 32.9444ZM27.0104 37.178C26.4162 37.1916 25.227 36.9581 24.8917 37.0073C23.916 37.1488 25.2028 37.6393 25.5692 37.695C27.3972 37.9675 27.9676 37.6499 29.0424 36.9869C30.118 36.3242 30.3553 36.5562 31.4328 35.1834C31.9354 34.5408 32.7037 33.3838 33.0061 32.5686C32.7825 32.7321 31.0097 34.7895 30.2989 35.3545C28.9016 36.4631 28.9364 36.0006 28.2911 36.4267L28.2052 36.4903C27.8794 36.6485 26.9695 36.4873 26.4245 36.6871C26.5642 36.963 26.4423 36.7605 26.6887 36.9343C26.8208 37.0274 26.7209 36.9486 26.8813 37.0663C26.8969 37.0792 26.9336 37.1401 26.9464 37.1212C26.9574 37.1019 26.9911 37.1572 27.0104 37.178ZM24.7952 12.0615C25.1695 12.0729 25.196 12.0763 25.4912 12.2576C25.5007 12.2701 25.8031 13.7374 24.7982 13.376L24.7952 12.0615ZM28.536 18.1208C28.1242 18.2367 27.4744 18.4183 27.0255 18.5841L27.0728 17.9774C27.099 17.4396 27.1561 17.2492 27.3927 16.7909C27.636 16.3201 27.5134 15.4386 28.1273 13.7957C28.276 13.3979 28.2102 13.3786 28.497 13.3869L28.4478 14.7074C28.5697 15.981 28.4452 16.901 28.536 18.1208ZM16.3303 28.4709C16.5729 28.609 16.2823 28.5277 16.6483 28.5386C16.9673 28.5489 17.5214 28.4709 17.4873 28.0637C17.2765 28.3634 16.7955 28.1583 16.3303 28.4709ZM28.6923 18.8055C28.6859 18.7945 28.6806 18.7828 28.6745 18.7714C28.6628 18.8025 28.6791 18.8267 28.6923 18.8055ZM28.6662 18.4282C28.6942 18.5625 28.7116 18.6571 28.7222 18.7219C28.7495 18.7079 28.79 18.6976 28.8483 18.6992L28.7041 18.6954C28.7025 18.6363 28.6923 18.5504 28.6662 18.4282ZM32.2469 45.6584L32.4691 44.0279L32.041 45.6326L32.2469 45.6584ZM40.7118 47.8085C41.879 46.3884 44.1858 46.432 43.6972 44.6267C43.2778 43.078 40.6603 42.2249 39.2483 41.9569C39.5253 41.4778 39.5287 41.6856 39.6313 40.9627C39.7119 40.3988 39.9121 40.3886 39.5681 39.906C39.1555 39.3273 38.4255 37.0546 37.6689 35.8371C37.3271 35.2868 36.7594 35.2845 36.1278 35.1395C35.4223 34.9776 35.6369 34.7929 35.923 34.4712C36.2277 34.1298 36.043 34.3451 36.1698 33.9432C36.3602 33.3376 36.4408 33.3683 36.2894 32.6481L35.6812 32.4785L35.6051 31.8593C35.9222 31.9963 35.8008 32.0179 35.9934 32.318L36.0328 30.8852L35.7398 31.3866L35.5548 31.0494C35.5082 30.8272 35.5139 30.4791 35.6585 30.2875L35.8386 30.1729C35.8481 30.1691 35.8818 30.1619 35.8897 30.1592C35.8984 30.1574 35.9264 30.1574 35.9427 30.149L35.9181 29.64L35.4397 29.4402L35.5332 28.8425C35.8269 28.9629 35.7156 28.9739 35.8833 29.2475C35.8477 28.5905 35.6407 27.9391 35.3027 27.4869L34.7539 27.6087L34.5556 27.1667C34.5938 27.4437 34.6744 27.3695 34.6105 27.5788C34.5624 27.7348 34.4591 27.4172 34.4606 28.0409C34.3262 27.5531 34.1991 27.6212 34.0768 27.1084C33.9731 26.672 33.9027 26.5494 33.6215 26.2788C33.1848 25.8602 32.5758 25.554 31.7909 25.448C32.3892 27.0808 32.7064 28.2994 32.0619 30.1301C31.6921 31.1819 31.132 31.9271 30.3069 32.4755C30.1453 32.5837 29.5995 32.8437 29.4852 33.005C31.8832 33.3452 32.675 30.3311 32.8109 28.5428L33.008 29.0367C33.1083 29.6434 32.9543 30.2925 32.8025 30.8708C32.6186 31.5706 32.1277 31.9589 31.7057 32.4781C30.6975 33.7165 30.0408 34.0306 27.9036 34.0681C28.7563 34.7088 30.1082 34.439 31.0237 33.9387C31.4794 33.6892 31.4748 33.6014 31.7878 33.3043C33.0455 32.1095 33.564 30.3405 33.9731 29.9216C33.905 34.3974 33.4149 38.9193 33.1004 43.3815C33.058 43.9776 32.9732 44.8874 32.9176 45.7802C33.1848 45.8397 33.4508 45.9123 33.7105 45.9945C33.6477 44.4601 33.5731 42.9391 33.6537 41.3313C33.7657 39.0912 33.919 36.862 33.9973 34.6411C34.2982 38.0072 33.8062 42.4115 34.0329 46.1023C34.1707 46.1508 34.3066 46.2015 34.4409 46.2549C34.5957 46.3165 34.836 46.4047 35.1188 46.4967C34.6548 42.9731 34.4235 39.4132 34.3997 35.8325C34.3917 34.593 34.2229 32.6443 34.3664 31.4979L34.8054 32.0747C34.8171 31.2776 34.8164 30.4802 34.8186 29.6835C34.8228 28.5345 34.618 27.7469 35.1559 27.5898C35.2887 27.8668 35.2433 28.3392 35.2421 28.6582C35.2368 29.7433 35.3667 30.9503 35.2119 32.013L34.7698 32.1988C35.1717 33.4493 35.2902 34.6191 35.3076 36.0195C35.3269 37.5273 35.4832 38.8875 35.5445 40.3401C35.9919 40.3371 36.0922 40.4877 36.3352 40.6645C36.4347 40.4457 36.415 40.353 36.3094 40.1388C37.5266 40.1948 37.494 41.2696 35.5945 40.4938C35.6252 41.0936 35.6433 40.8885 36.0627 41.0516C35.9143 41.4426 35.8345 41.2613 35.7156 41.6326L36.2387 41.4256C36.0608 41.6053 36.0089 41.6829 35.7262 41.7495C35.831 42.8585 36.177 45.2633 36.5202 46.8615C36.9188 46.9304 37.2798 46.9497 37.5145 46.8737C37.9607 46.5981 38.4936 46.5731 38.9739 46.8112C39.2093 46.9281 39.4012 47.0932 39.5423 47.2919H39.5753C40.0275 47.2919 40.434 47.4921 40.7118 47.8085ZM28.6435 19.4273L27.6924 19.5624C27.6928 20.21 27.583 19.7271 27.9263 20.0473C28.1988 20.302 27.9149 20.238 28.3619 20.3546C28.4664 20.1627 28.4955 20.1127 28.4826 19.83C28.6284 20.1385 28.5727 20.0317 28.8017 20.0851L28.6435 19.4273C29.0443 19.7604 28.9879 19.6037 29.0984 19.939C30.2944 19.6241 30.4617 19.7479 31.1009 20.4307C30.0609 20.0946 30.5798 20.0492 29.1919 20.09L29.148 20.2168C29.1431 20.2304 29.1321 20.2649 29.1249 20.2827C28.8668 20.9571 28.8634 20.7183 28.9622 21.5313C29.0765 22.4755 28.93 21.9302 29.1654 22.6167C29.2316 22.8128 29.3346 22.5796 29.1923 22.885C28.5065 22.913 28.2109 23.0069 27.412 22.9464C27.2628 23.7434 26.8215 24.3244 26.0449 24.4867C26.3008 23.2896 26.2656 23.7339 25.9969 22.6262C25.7902 21.7735 26.1225 21.4378 25.0753 21.3666C25.2838 21.9884 25.3678 21.6645 25.797 21.9884C26.0294 23.2942 25.5158 24.126 24.4122 24.3611C24.167 24.4137 21.7622 23.8853 21.1971 23.7873L21.1846 23.5341C20.6733 23.2786 20.2468 21.7765 19.8819 21.1959C19.6454 20.8212 19.3861 20.6365 18.8521 20.4519C17.8253 20.0972 18.1349 19.9186 17.7307 19.7286C17.5816 20.2679 17.7239 20.2471 17.4548 20.8262L17.8234 20.2569C18.1527 21.0669 19.0356 20.7433 18.7317 21.9374L17.2122 22.3207C17.3004 21.9362 17.1766 21.8969 17.1437 21.6092L17.0937 21.1199C16.9813 21.3753 16.8084 21.5717 16.769 21.8938C16.7425 22.1111 16.7788 22.1678 16.7785 22.3499C16.7777 22.7628 16.7319 22.4733 16.713 22.8805C17.2292 23.307 16.8534 22.7022 17.3125 23.7612C17.3216 23.782 17.3314 23.8066 17.3401 23.8278C17.6989 24.6752 17.6031 24.0693 17.6001 24.6794C17.5978 25.0741 17.658 25.1173 17.893 25.3186C17.7591 25.6062 17.9468 25.3958 17.6315 25.5726C18.0743 25.5767 17.9631 25.5748 18.0853 25.6619C17.7629 26.1365 17.6909 26.5929 16.8114 26.4105C16.822 26.0933 16.7864 26.2201 16.9522 26.0184C16.9673 26.0176 16.9877 26.0237 16.9919 26.0411C16.9964 26.0593 17.0252 26.0615 17.0313 26.0665C17.0725 26.0922 17.2701 26.4173 17.4832 26.0865C17.4915 26.0744 17.5036 26.0453 17.5074 26.0301C17.5123 26.0169 17.515 25.9851 17.5165 25.9696C17.5498 25.646 17.4237 25.9128 17.4434 25.6157C17.4434 25.6138 17.454 25.6017 17.451 25.5941C17.0691 25.7433 17.0812 25.8628 16.7913 26.0438C16.4405 26.2625 16.3175 26.2512 16.0503 26.5142L16.5991 26.1842C16.7012 26.3556 16.7319 26.8177 17.5861 26.5558C17.7704 26.4994 17.9335 26.406 18.0509 26.2773C18.4112 25.8799 18.0142 26.0733 18.3843 25.8345C18.9675 25.5956 19.9213 25.8042 20.3255 26.1425C19.6427 26.4389 18.812 26.7647 18.0058 26.8772C16.856 27.0384 15.8955 27.5599 15.7282 27.4838C15.4432 28.7744 15.0844 29.025 14.6681 29.8796C14.8626 30.076 15.0746 30.4102 15.1298 30.708C14.9349 30.8167 14.9247 30.7902 14.7487 30.8999C14.6166 30.8307 14.7025 30.8817 14.5765 30.7875L14.0781 30.4446C13.6716 30.2743 13.3904 30.3818 13.0815 30.2368C12.968 30.4847 12.8355 30.6414 12.6773 30.789L13.4876 31.166C13.6614 31.1554 13.373 31.0354 13.9668 31.3174C13.7601 30.8325 13.6905 30.9533 13.4316 30.6342C14.0005 30.7985 14.4365 31.2984 14.6666 31.7519L13.9244 31.5812C14.0625 31.8415 14.1333 31.8336 14.3222 32.1379C13.0581 32.1977 13.6012 32.2794 12.5706 31.8824L12.7349 32.1598C12.8885 32.6844 11.6506 33.5526 11.1672 33.6556L11.3463 34.5101C11.1109 34.38 11.0363 34.1987 10.8066 34.0318C10.9027 34.7319 10.9984 34.8341 10.8194 34.9745C10.1529 35.501 10.9292 36.6451 10.4625 37.2684C9.38351 36.3438 10.6635 33.838 11.0299 32.9524C10.517 33.5008 10.3092 34.0768 10.0538 34.9639C9.35172 37.4001 10.5106 37.0205 10.6866 38.3929C10.8452 39.6384 11.137 40.9146 11.5991 42.0572C12.023 43.1045 12.5608 44.0419 13.2579 44.8734C13.8199 45.5441 14.9637 46.4846 15.7634 46.9331C16.1101 47.1287 16.3852 47.279 16.7467 47.4417L17.0483 47.5685C17.2731 47.4099 17.543 47.3108 17.8344 47.2945C17.9018 47.198 17.9816 47.1106 18.0728 47.0315C17.4548 46.4399 16.562 45.3768 16.2845 45.0108C14.8112 43.0742 13.6084 40.7515 12.6134 38.4341C12.0892 37.2136 11.7338 35.758 10.6775 35.2168C11.0844 34.9109 11.305 35.2588 11.5715 35.5472C11.8455 34.6562 11.3584 35.0302 12.1327 34.428L14.0402 32.8884C14.6552 32.379 14.4887 32.569 15.2313 32.2802C14.6749 35.5892 15.0961 37.5818 16.0643 40.3935C16.3319 41.1701 16.9223 43.1896 17.4052 43.8027C17.6474 44.1104 18.5016 45.8056 18.8366 46.6659C18.9138 46.6519 18.9902 46.6443 19.0659 46.6416C19.2972 46.5489 19.5492 46.5966 19.8365 46.5069C20.3319 46.3517 20.0272 46.1788 20.4326 46.3533C20.7043 46.58 20.5518 46.5251 20.6521 46.8774C20.897 46.8502 21.1293 46.8782 21.3451 46.9599C21.5498 46.7484 21.8193 46.5959 22.1293 46.5315C22.4203 46.4717 22.6413 46.3639 22.9154 46.2549C23.2257 46.1322 23.5447 46.0206 23.8702 45.9267C24.1995 45.2148 24.5916 45.5176 25.0783 45.6629C25.2713 45.6353 25.4655 45.6149 25.6593 45.6024C25.3508 45.1164 24.7142 45.2784 24.0148 45.2148C24.2483 45.0123 24.76 44.6149 25.0272 44.5635L23.7843 44.8931C23.4161 44.3648 22.5293 43.2138 22.3026 42.5451C23.3548 42.7358 23.2442 44.8549 24.4516 44.2387C25.0144 43.71 23.0838 42.0167 22.398 41.7022L23.5697 40.884C24.1927 42.0451 25.0041 43.4118 25.4655 44.6857C25.5904 45.0305 25.5529 45.0559 25.7471 45.3352C25.8118 45.4294 25.8629 45.5142 25.903 45.5914C26.4805 45.5751 27.0581 45.6326 27.6194 45.7848C27.9607 45.8775 28.3369 46.0221 28.6866 46.2197C28.7888 46.1617 28.8937 46.1084 28.9993 46.0592C29.2888 45.5214 30.0715 44.1884 30.1498 43.7793C30.2509 43.2543 30.1926 42.7226 30.4136 42.2756C30.5601 41.9789 30.9386 41.3639 31.1323 41.1459L31.0994 41.9369C31.6595 41.6447 31.7712 40.9971 32.0331 40.4431C32.2984 39.881 32.572 39.3848 32.7798 38.858C32.3976 39.2024 32.1016 39.6823 31.7239 40.1361C30.9912 41.0168 30.3549 42.0027 29.6888 42.9455C28.8055 44.196 29.4353 44.1199 29.0984 44.9071C28.6972 44.881 28.7067 44.8481 28.4592 44.5926C28.5565 43.794 29.5594 41.9384 30.1199 41.4218C30.4753 41.0959 31.0907 40.6486 31.3745 40.2504C31.5142 40.0547 32.0834 38.7918 32.1383 38.5772C31.4181 39.2872 31.0589 40.0222 30.0438 40.4113C29.5995 40.5812 29.1022 40.8098 28.7771 41.1016C28.6325 41.231 27.9918 42.0659 27.8832 42.2336C27.085 41.9528 27.2825 42.4936 26.8696 42.2627C27.1539 41.9891 27.5346 41.8653 27.8438 41.5664C28.8607 40.5831 28.3373 40.8715 29.6771 40.046C30.037 39.8246 30.3341 39.6433 30.6445 39.4166C30.297 39.4995 28.4861 40.2023 28.1545 40.3867C27.7321 40.6198 27.6708 40.9313 27.1644 41.1693C26.3098 41.572 26.6524 41.2696 25.8916 41.1035L25.5764 41.5947L24.8948 41.354C25.0465 39.1547 25.0866 39.8053 24.3653 39.2899C24.4565 39.249 24.503 39.2482 24.6139 39.1771C24.8297 39.0401 24.7191 39.1298 24.8198 39.0015C24.4149 38.6885 24.6824 38.6741 23.9773 38.679C22.686 38.6869 23.0327 38.254 22.0823 38.4065C21.7576 38.4587 21.2974 38.5053 21.0824 38.6396L23.7465 39.3311C22.9309 39.4904 22.4597 39.3913 21.7133 39.2891C21.9317 39.7622 22.5827 40.6395 23.1299 40.3844L23.5228 40.2269C23.6424 40.1948 23.6132 40.2182 23.7544 40.1706C23.9016 40.1198 23.8434 40.1251 23.9433 40.0831C24.5761 39.8201 24.3747 40.8158 23.6443 40.705C23.2045 40.6387 23.7014 40.4631 22.7008 41.0838C22.3934 41.2742 20.7872 42.2423 20.464 41.4471C20.7918 41.2322 20.9352 41.3612 21.3701 41.4059C21.2792 41.1951 21.2993 41.2265 21.1293 41.0868L21.7591 40.9158C20.4761 40.6016 20.7494 40.4771 20.397 39.3182C18.9611 38.8675 19.304 39.0359 18.8748 37.5769C18.6129 36.6886 18.4547 35.772 17.9074 35.1717C18.0036 36.088 18.2507 37.0682 18.3991 37.9573C17.6826 37.3907 17.4438 35.185 16.4685 34.1975C16.5495 34.97 16.8473 34.7183 17.0896 35.4518C17.4056 36.4086 17.6614 37.424 18.2269 38.226C18.4838 38.5916 18.8294 39.1566 18.7393 39.7077C18.3408 39.3561 18.0441 38.5178 17.6448 38.0697C17.6788 38.525 17.7962 38.9352 17.9653 39.3258C18.2723 40.0339 18.2832 39.8227 18.762 40.2058C19.072 40.4536 18.9857 40.9002 19.2718 41.2829C19.6378 41.7726 19.8236 41.3423 20.2309 41.9808L19.2957 41.8918C19.055 41.287 18.5118 41.0755 18.1205 40.5854C18.2284 40.1899 18.2106 40.4582 18.4002 40.1179C17.7386 39.9779 17.8174 40.0184 17.6595 39.3743L17.2186 39.2482C17.0555 38.2914 16.867 37.3665 16.6842 36.418C16.5306 35.621 16.1631 34.2006 16.193 33.4565C16.3818 33.5924 16.2312 33.4569 16.3818 33.6204C16.4904 33.7381 16.4938 33.7699 16.554 33.8471C16.7186 34.0605 16.6081 34.0189 16.9064 34.1392C17.4593 34.3633 17.3522 34.0938 17.7844 34.5696C18.1046 34.9223 18.0781 34.9655 18.656 34.9726C19.0262 34.9772 19.623 35.0162 19.8637 34.9011C19.4679 34.6706 18.9195 34.6214 18.4914 34.4186C17.7712 34.0776 17.8753 33.9413 17.6383 33.4277C17.5176 33.1654 16.9007 32.7741 16.6085 32.575C16.0461 32.1909 15.7827 32.3551 15.7536 31.5282C15.5215 31.9063 15.6688 31.9994 15.2816 32.2874C15.4368 31.4355 15.7755 31.5085 15.6779 30.7039C15.6639 30.5911 15.6445 30.4507 15.657 30.3417C15.6869 30.0983 15.6294 30.2175 15.7596 30.0696C15.5829 29.9443 15.5855 30.23 15.6964 29.2672C15.7282 28.9875 15.6548 28.7317 15.7729 28.3547C16.3546 27.7616 17.7962 27.7238 18.857 27.8252L18.9013 27.2916C18.6121 27.7707 18.5705 27.6243 17.1058 27.7798C17.4699 27.2851 17.4801 27.8631 17.5899 27.2882C17.2292 27.4055 16.8292 27.5773 16.4234 27.5323C16.8852 27.1818 17.7269 27.1334 18.3862 27.1057C19.3082 27.0664 19.2835 26.5971 20.1173 26.529C19.4353 27.5349 19.4383 28.2158 19.3403 29.6903C19.2745 30.6861 19.2941 30.5597 18.9425 30.5801C18.7772 30.3621 18.846 30.3019 18.8396 29.9746C18.2639 29.9541 16.7853 29.7853 16.5309 30.3356C16.7879 30.7217 16.7251 30.3254 17.0347 30.5218C16.7773 30.6989 16.5063 30.6819 16.28 30.5729C16.1892 30.2134 16.3425 30.1267 16.5404 29.9746L16.0419 30.0601C16.0287 30.0756 16.0003 30.0726 15.9943 30.0998C15.9886 30.1275 15.956 30.1324 15.9485 30.1426L15.8005 30.5074C15.7944 30.6569 15.8618 30.9991 15.8773 31.1834C16.629 31.0475 17.0661 30.8318 17.9578 30.7557C18.4282 30.7148 18.7669 30.769 19.159 30.7648C19.7888 30.7587 19.0485 30.5903 20.1873 30.6759L19.1098 31.9975C19.486 31.8593 19.7491 31.56 20.1393 31.3764C19.863 31.9672 19.7309 31.963 19.2877 32.3585L18.2901 33.2638C18.0535 33.1643 17.9002 33.0598 17.6399 32.9444L18.6682 33.6404C18.6523 33.6264 18.6178 33.5984 18.6178 33.5871L18.6629 33.3452L18.7597 33.1473C18.952 32.9194 19.9345 32.1557 20.2138 32.049C20.2434 32.3619 20.0318 32.4172 19.4452 32.8271L20.2475 32.5383L20.914 33.1821L20.2687 33.1776C21.0813 33.6298 21.3947 33.545 21.75 34.5033C21.4355 34.4027 21.1256 34.2588 20.8307 34.4352C21.3106 34.7872 21.6721 34.7815 21.8027 35.4291C21.3508 35.2205 21.0154 34.9916 20.3921 35.0464C20.5211 35.1982 20.8232 35.4945 21.0018 35.6467C20.9749 37.142 20.6131 36.407 20.9371 38.3043C21.951 38.2328 22.2171 37.9853 23.1175 38.369C23.178 38.3948 24.9739 38.9012 24.8834 37.9164L23.2276 37.8948L20.9325 31.3885C21.3235 31.0214 21.4643 31.1262 22.1168 31.11C22.7136 31.096 22.9778 31.247 22.9536 31.859L22.5172 31.9884L23.0058 33.777C23.5955 33.3573 23.6814 33.433 24.1836 33.7551C24.5424 33.986 24.3789 33.729 24.5749 34.0636L24.4527 34.0836C24.3043 34.0704 24.4448 34.1196 24.2718 34.0511C24.1386 33.9977 24.05 33.8891 23.9145 33.8308C23.4853 33.6427 23.3551 33.7419 23.1443 33.9935C23.0596 34.1211 23.7707 36.3124 24.0905 36.6076C24.3906 35.649 25.0291 35.0699 25.9511 34.7372C25.8583 34.6657 25.9091 34.6861 25.7535 34.6229L24.975 34.6638C24.9757 34.9742 25.0231 34.6078 24.9988 34.791C24.6302 34.9639 24.634 35.0063 24.324 35.2205C24.2351 34.8035 24.1174 34.8424 23.8237 34.5896L23.5531 34.3096C24.1628 34.4015 23.8362 34.4988 24.3763 34.7327C24.6098 34.4223 24.8448 34.2596 25.2944 34.081C25.906 33.8384 26.0934 33.8667 26.4855 34.2596C26.3863 33.6067 26.0934 33.6506 25.4337 33.5538C25.498 33.4762 25.3459 33.3884 25.7512 33.3339C26.0934 33.2869 25.8402 33.3691 26.1611 33.4709C26.529 33.5878 26.6671 33.4489 26.9559 33.346L27.2004 33.7184C27.622 33.5617 27.7541 33.3429 28.2919 33.1628C28.7396 33.0122 28.5409 33.1802 28.7824 32.8161C28.9705 32.5315 28.8778 32.6076 29.1491 32.3419C29.8872 31.6186 30.4344 31.9937 30.9389 30.8712C31.6247 29.3455 31.7212 27.7234 30.7262 26.3821L30.3822 25.8231C30.8102 25.889 30.7645 25.8606 30.892 26.236L31.0131 25.8318C31.1191 25.9915 31.725 26.9578 31.8726 27.1334C32.1001 25.7122 30.5249 24.7619 30.1771 24.685L30.5154 25.213C29.9731 25.2062 29.9731 24.9352 29.7316 24.651L29.6238 24.1896C30.0249 23.983 31.0623 23.843 31.5808 24.4882C31.8847 24.1272 31.5642 24.425 31.6894 23.8975L31.0487 23.7873C30.8333 23.737 30.7705 23.7468 30.8314 23.4936C31.3681 23.2942 30.9533 23.6935 31.2852 23.477C31.6209 23.2597 31.1002 23.5182 31.4094 23.3604C31.4415 23.5625 31.2996 23.7052 32.2571 23.8781C32.0388 23.3029 31.7193 23.7427 31.6349 23.2563L32.6977 23.1984C32.6492 23.4811 32.552 23.4948 32.4074 23.7483C32.6947 23.8713 33.2809 24.5594 33.1053 24.894C32.376 24.9004 33.3384 24.847 32.334 24.2998L31.957 24.0549C31.9593 24.8228 31.9714 24.2929 32.837 25.0098C33.0054 25.1498 33.1129 25.1737 33.3396 25.2713C33.2885 24.3879 32.8774 23.9281 32.966 23.2283C32.997 22.9785 32.9989 22.9426 32.9967 22.7106L32.9997 22.4392C33.0031 22.4222 33.013 22.3976 33.0167 22.3809C33.1061 22.0051 33.1098 21.8692 32.8275 21.3984C32.6053 21.0317 31.9835 20.6165 31.384 20.8818C31.3753 20.2422 31.6826 20.4397 31.887 19.8947C31.9597 19.7021 31.9653 19.6234 32.0058 19.4383C29.5348 19.1499 30.5911 19.388 29.6616 19.5371C29.3728 19.584 29.4107 19.5307 29.3546 19.4943L30.1282 19.2052C29.9613 19.1071 29.9027 19.0992 29.8247 18.8736L29.8573 15.5639C30.2248 15.3417 29.9682 15.5132 30.0529 15.3485L30.3099 15.327C30.7009 15.7365 30.923 16.1055 31.683 16.1377L31.0169 15.3732C30.6044 15.0182 30.7891 14.8225 30.4049 14.4856L30.1525 14.419C29.8641 14.3925 30.1313 14.5424 29.8902 14.4005C29.9106 13.9297 29.8486 14.2188 30.0578 14.1151C30.5953 14.2332 30.5775 14.4921 30.962 14.4811C31.4643 14.466 31.1933 14.1253 31.8442 14.0553L32.681 13.5788L32.9634 13.259C32.4282 13.3033 32.2382 13.2707 31.7757 13.2325C30.9162 13.1618 31.2951 13.337 30.7766 13.4403C30.467 12.9286 30.4901 12.8919 29.8327 12.7121L29.8735 10.0307C29.8777 8.54365 30.6388 10.8353 29.6041 7.56946C29.3781 7.85861 29.3516 8.31733 29.1919 8.62881L28.9315 7.95475C28.5129 8.32755 28.9425 9.15223 27.9127 9.01939L28.0149 8.66401L27.0305 7.03545C26.9994 6.60399 27.0316 6.14604 27.0248 5.73351C27.0066 4.54095 27.0566 4.98527 27.2095 4.61209C27.2875 4.42551 26.8636 3.01154 26.6762 2.78181C26.3651 3.29274 26.4139 4.10229 26.1013 4.55571L26.1236 2.37609C26.1535 1.80498 26.1112 2.31062 26.384 1.85418C26.2834 1.52719 26.1876 1.23765 26.0873 0.908756C25.9658 0.508713 25.9783 0.26952 25.707 4.95911e-05C25.6036 0.430748 25.2168 1.62559 25.2925 1.96583C25.2993 1.998 25.3349 2.00594 25.344 2.01654L25.5113 6.57257C25.503 7.64365 25.6801 10.0874 25.2301 10.802C24.925 11.2849 24.7419 10.9004 24.6798 11.8473L24.4436 11.8946L24.1132 11.8867L24.0909 11.2357L24.4531 11.3103C24.4217 11.0014 24.4682 10.6934 24.4447 10.6033C24.0432 10.4212 24.1287 10.5844 24.0848 10.2051C24.4027 10.1836 24.0667 10.1245 24.4989 10.2471C24.2044 9.05647 24.835 9.67528 24.5742 8.87027C24.4372 8.44638 24.3248 7.76173 24.0674 7.43132L23.5307 9.24609C23.5357 9.67036 23.7147 9.02014 23.7631 10.193L23.7567 12.007C23.7465 12.2383 23.8021 12.2504 23.7866 12.6183C23.7802 12.7613 23.7567 12.826 23.7556 12.9165L23.8138 14.0277C23.8101 16.1119 23.8119 18.2253 23.8536 20.3077C23.6087 20.3546 23.3794 20.408 23.1625 20.4905L22.5721 20.8394C21.7561 21.2875 22.1134 21.3704 21.6577 22.2269C21.571 22.3892 21.5188 22.6636 21.4545 22.8733L21.1846 23.5341C21.2482 23.3695 21.2773 23.304 21.3341 23.1451C21.4435 23.298 21.4874 23.2283 21.255 23.7218C23.4278 23.6333 23.2601 24.0693 24.5326 24.0969C24.9432 23.67 25.0548 23.4281 25.0231 22.6614L24.7899 23.234C24.5261 23.8066 23.8343 23.7252 22.9763 23.6185C23.1693 23.1 23.8786 23.1969 23.463 22.3809L23.9187 22.1572C23.8922 22.1167 23.8653 22.0672 23.8574 22.0831L22.9611 21.2977L23.0497 21.9548C22.7136 21.828 22.289 21.6618 21.9858 21.4832C22.1724 21.0816 22.2954 21.1077 22.5721 20.8394C22.9032 20.7077 23.0486 20.5783 23.438 20.4693C23.7938 20.3697 24.0769 20.3534 24.4398 20.2796L24.9716 20.0957C24.9576 20.1037 24.9114 20.0628 24.8948 20.09L24.7309 20.0435C24.3331 19.9564 24.4273 20.8326 24.427 18.6867L24.444 14.7551L25.0654 14.9807C24.8895 14.7033 24.9178 14.8524 24.7998 14.4936C25.1919 14.1106 25.1101 14.2654 25.4935 14.0345C25.5525 14.9962 25.6048 18.7438 25.4413 19.5352C25.7611 19.4042 25.7001 19.3838 25.9526 19.184C26.9324 19.0477 27.1879 18.5955 27.938 18.4808C28.2382 18.4354 28.0955 18.4248 28.2469 18.5175L27.3325 19.4372C26.5222 20.1196 26.3787 18.8032 25.4363 19.9629C25.0465 20.4413 24.3134 20.6165 24.4133 21.8813L25.428 20.607C25.9174 20.0893 26.3345 20.2365 27.208 20.1824C26.8454 20.682 26.479 20.1426 25.9461 20.7179C26.2281 20.6952 26.462 20.6002 26.7194 20.738C26.465 21.1486 26.2217 20.8394 26.1687 21.2966C26.1622 21.3549 26.3174 22.1012 26.339 22.3113C26.6713 21.3689 26.4665 20.9408 27.5149 20.6513C27.9562 21.3053 27.6296 22.1538 27.1644 22.435L27.6076 22.418C27.8601 22.9838 27.3771 22.7908 27.9804 22.8309C28.2022 22.496 28.1855 21.121 27.7439 20.6002C27.5357 20.3546 27.2447 20.2558 27.4184 19.8062C27.6076 19.3145 27.7976 19.5363 28.0788 19.0977L28.1893 19.1257C28.2397 19.3891 28.0974 19.1151 28.346 19.2714C28.4414 19.3316 28.4539 19.282 28.6435 19.4273ZM21.4545 22.8733C21.5419 22.7 21.5748 22.7904 21.6441 22.7253C22.4453 22.9524 22.3628 22.6761 22.9214 22.7291C22.6705 23.2537 21.6796 23.4516 21.4545 22.8733ZM31.6349 23.2563C31.2826 23.0743 31.2924 22.9853 31.149 22.6591C30.8178 22.6617 30.9787 22.5054 30.6335 22.6481C30.7724 22.3563 30.624 22.4721 30.8931 22.3711C31.1641 22.2689 30.9041 22.5255 31.1164 22.289L31.1914 22.1667C31.2016 22.1512 31.2175 22.116 31.2337 22.0929C31.2761 22.5444 31.4453 22.7132 31.6376 22.9414C32.2023 22.7212 31.9003 22.5868 32.6515 22.7197C32.407 22.8707 32.4108 22.8245 32.1065 22.9172C31.666 23.0519 31.937 23.0126 31.6349 23.2563Z"
          fill="#1C1F56"/>
    <path d="M16.4097 49.6167C16.2696 49.3461 16.1186 49.0713 15.8034 49.1728C15.406 49.3014 15.398 49.8692 15.3466 50.2779C15.3098 50.5761 15.3401 50.8937 15.3992 51.1915C15.5699 52.0594 15.9211 52.833 16.4097 53.5354V49.6167Z"
          fill="#1C1F56"/>
    <path d="M38.3109 60.7654C38.3109 60.7654 37.2281 61.595 33.8734 60.2629C30.5186 58.9306 28.9302 60.3631 28.9302 60.6271V48.0465C28.9302 47.7828 30.5368 46.3502 33.8923 47.6825C37.2467 49.0143 38.3109 48.1877 38.3109 48.1877V60.7654Z"
          fill="#1C1F56"/>
    <path d="M82.34 21.04L83.11 21.81C82.7967 22.2233 82.3867 22.5533 81.88 22.8C81.38 23.04 80.8267 23.16 80.22 23.16C79.68 23.16 79.1833 23.0667 78.73 22.88C78.2833 22.6933 77.8933 22.4333 77.56 22.1C77.2333 21.7667 76.9767 21.3733 76.79 20.92C76.61 20.46 76.52 19.9633 76.52 19.43C76.52 18.89 76.6133 18.3933 76.8 17.94C76.9867 17.48 77.2467 17.0833 77.58 16.75C77.92 16.4167 78.3167 16.1567 78.77 15.97C79.2233 15.7833 79.7167 15.69 80.25 15.69C80.8567 15.69 81.4067 15.8133 81.9 16.06C82.3933 16.3 82.7967 16.6267 83.11 17.04L82.34 17.81C82.1067 17.47 81.8133 17.2033 81.46 17.01C81.1067 16.81 80.7033 16.71 80.25 16.71C79.77 16.71 79.34 16.83 78.96 17.07C78.58 17.3033 78.28 17.6233 78.06 18.03C77.84 18.4367 77.73 18.9033 77.73 19.43C77.73 19.95 77.84 20.4133 78.06 20.82C78.28 21.2267 78.58 21.55 78.96 21.79C79.34 22.0233 79.77 22.14 80.25 22.14C80.7033 22.14 81.1067 22.04 81.46 21.84C81.8133 21.64 82.1067 21.3733 82.34 21.04ZM84.2205 23V22.03H85.1105C85.3371 22.03 85.5305 21.9967 85.6905 21.93C85.8505 21.8567 85.9938 21.7367 86.1205 21.57C86.2471 21.4033 86.3771 21.1767 86.5105 20.89L88.9105 15.85H90.0905L87.3105 21.5C87.1305 21.8667 86.9405 22.16 86.7405 22.38C86.5471 22.6 86.3238 22.76 86.0705 22.86C85.8171 22.9533 85.5138 23 85.1605 23H84.2205ZM86.4605 21.4L83.6405 15.85H84.8305L87.3305 20.88L86.4605 21.4ZM92.288 23H91.138V15.85H93.998C94.4914 15.85 94.9247 15.94 95.298 16.12C95.6714 16.2933 95.9614 16.54 96.168 16.86C96.3814 17.1733 96.488 17.5433 96.488 17.97C96.488 18.39 96.3814 18.76 96.168 19.08C95.9614 19.4 95.6714 19.65 95.298 19.83C94.9247 20.0033 94.4914 20.09 93.998 20.09H92.188V19.11H93.998C94.4047 19.11 94.7247 19.01 94.958 18.81C95.198 18.6033 95.318 18.3233 95.318 17.97C95.318 17.6167 95.198 17.34 94.958 17.14C94.7247 16.9333 94.4047 16.83 93.998 16.83H92.288V23ZM97.7982 23V15.85H102.428V16.84H98.3282L98.9482 16.12V23H97.7982ZM103.293 23V22.03H104.183C104.409 22.03 104.603 21.9967 104.763 21.93C104.923 21.8567 105.066 21.7367 105.193 21.57C105.319 21.4033 105.449 21.1767 105.583 20.89L107.983 15.85H109.163L106.383 21.5C106.203 21.8667 106.013 22.16 105.813 22.38C105.619 22.6 105.396 22.76 105.143 22.86C104.889 22.9533 104.586 23 104.233 23H103.293ZM105.533 21.4L102.713 15.85H103.903L106.403 20.88L105.533 21.4ZM113.09 23H111.94V16.74H113.09V23ZM115.38 16.84H109.66V15.85H115.38V16.84ZM121.656 21.04L122.426 21.81C122.113 22.2233 121.703 22.5533 121.196 22.8C120.696 23.04 120.143 23.16 119.536 23.16C118.996 23.16 118.5 23.0667 118.046 22.88C117.6 22.6933 117.21 22.4333 116.876 22.1C116.55 21.7667 116.293 21.3733 116.106 20.92C115.926 20.46 115.836 19.9633 115.836 19.43C115.836 18.89 115.93 18.3933 116.116 17.94C116.303 17.48 116.563 17.0833 116.896 16.75C117.236 16.4167 117.633 16.1567 118.086 15.97C118.54 15.7833 119.033 15.69 119.566 15.69C120.173 15.69 120.723 15.8133 121.216 16.06C121.71 16.3 122.113 16.6267 122.426 17.04L121.656 17.81C121.423 17.47 121.13 17.2033 120.776 17.01C120.423 16.81 120.02 16.71 119.566 16.71C119.086 16.71 118.656 16.83 118.276 17.07C117.896 17.3033 117.596 17.6233 117.376 18.03C117.156 18.4367 117.046 18.9033 117.046 19.43C117.046 19.95 117.156 20.4133 117.376 20.82C117.596 21.2267 117.896 21.55 118.276 21.79C118.656 22.0233 119.086 22.14 119.566 22.14C120.02 22.14 120.423 22.04 120.776 21.84C121.13 21.64 121.423 21.3733 121.656 21.04ZM124.837 23H123.687V15.85H124.837V23ZM129.987 23H128.377L124.587 19.29H124.737L128.107 15.85H129.567L125.967 19.43V19.15L129.987 23ZM131.031 23V15.85H132.181V22.42H131.441L135.801 15.85H137.041V23H135.891V16.42H136.611L132.251 23H131.031ZM138.824 23V15.85H139.974V22.42H139.234L143.594 15.85H144.834V23H143.684V16.42H144.404L140.044 23H138.824ZM141.844 15.08C141.37 15.08 140.974 14.96 140.654 14.72C140.334 14.48 140.147 14.1267 140.094 13.66H141.014C141.047 13.9267 141.137 14.12 141.284 14.24C141.437 14.36 141.624 14.42 141.844 14.42C142.07 14.42 142.254 14.36 142.394 14.24C142.54 14.12 142.634 13.9267 142.674 13.66H143.594C143.547 14.1267 143.364 14.48 143.044 14.72C142.724 14.96 142.324 15.08 141.844 15.08ZM148.57 23V15.85H149.72V22.42H148.98L153.34 15.85H154.58V23H153.43V16.42H154.15L149.79 23H148.57ZM161.183 23V15.85H162.333V23H161.183ZM157.513 23H156.363V15.85H157.513V23ZM157.413 19.81V18.82H161.283V19.81H157.413ZM169.576 21.04L170.346 21.81C170.033 22.2233 169.623 22.5533 169.116 22.8C168.616 23.04 168.063 23.16 167.456 23.16C166.916 23.16 166.42 23.0667 165.966 22.88C165.52 22.6933 165.13 22.4333 164.796 22.1C164.47 21.7667 164.213 21.3733 164.026 20.92C163.846 20.46 163.756 19.9633 163.756 19.43C163.756 18.89 163.85 18.3933 164.036 17.94C164.223 17.48 164.483 17.0833 164.816 16.75C165.156 16.4167 165.553 16.1567 166.006 15.97C166.46 15.7833 166.953 15.69 167.486 15.69C168.093 15.69 168.643 15.8133 169.136 16.06C169.63 16.3 170.033 16.6267 170.346 17.04L169.576 17.81C169.343 17.47 169.05 17.2033 168.696 17.01C168.343 16.81 167.94 16.71 167.486 16.71C167.006 16.71 166.576 16.83 166.196 17.07C165.816 17.3033 165.516 17.6233 165.296 18.03C165.076 18.4367 164.966 18.9033 164.966 19.43C164.966 19.95 165.076 20.4133 165.296 20.82C165.516 21.2267 165.816 21.55 166.196 21.79C166.576 22.0233 167.006 22.14 167.486 22.14C167.94 22.14 168.343 22.04 168.696 21.84C169.05 21.64 169.343 21.3733 169.576 21.04ZM174.487 23H173.337V16.74H174.487V23ZM176.777 16.84H171.057V15.85H176.777V16.84ZM178.003 23V15.85H179.153V22.42H178.413L182.773 15.85H184.013V23H182.863V16.42H183.583L179.223 23H178.003ZM188.676 23H187.526V16.74H188.676V23ZM190.966 16.84H185.246V15.85H190.966V16.84ZM192.043 23V22.03H192.933C193.159 22.03 193.353 21.9967 193.513 21.93C193.673 21.8567 193.816 21.7367 193.943 21.57C194.069 21.4033 194.199 21.1767 194.333 20.89L196.733 15.85H197.913L195.133 21.5C194.953 21.8667 194.763 22.16 194.563 22.38C194.369 22.6 194.146 22.76 193.893 22.86C193.639 22.9533 193.336 23 192.983 23H192.043ZM194.283 21.4L191.463 15.85H192.653L195.153 20.88L194.283 21.4ZM201.84 23H200.69V16.74H201.84V23ZM204.13 16.84H198.41V15.85H204.13V16.84ZM79.32 36.16C78.6933 36.16 78.1167 36.04 77.59 35.8C77.0633 35.5533 76.6433 35.2233 76.33 34.81L77.06 34.09C77.3133 34.4033 77.63 34.6567 78.01 34.85C78.39 35.0433 78.8133 35.14 79.28 35.14C79.78 35.14 80.2167 35.0267 80.59 34.8C80.9633 34.5667 81.25 34.2467 81.45 33.84C81.6567 33.4333 81.76 32.9633 81.76 32.43C81.76 31.89 81.6567 31.4167 81.45 31.01C81.2433 30.6033 80.9533 30.2867 80.58 30.06C80.2067 29.8267 79.7733 29.71 79.28 29.71C78.8267 29.71 78.4167 29.81 78.05 30.01C77.6833 30.2033 77.3667 30.46 77.1 30.78L76.35 30.04C76.6767 29.6267 77.0933 29.3 77.6 29.06C78.1067 28.8133 78.67 28.69 79.29 28.69C79.8233 28.69 80.3133 28.7833 80.76 28.97C81.2067 29.15 81.59 29.4067 81.91 29.74C82.2367 30.0667 82.4867 30.46 82.66 30.92C82.84 31.3733 82.93 31.8767 82.93 32.43C82.93 33.1633 82.78 33.81 82.48 34.37C82.18 34.93 81.76 35.37 81.22 35.69C80.68 36.0033 80.0467 36.16 79.32 36.16ZM77.95 32.81V31.82H82.34V32.81H77.95ZM85.4912 36H84.3412V28.85H85.4912V36ZM90.6412 36H89.0312L85.2412 32.29H85.3912L88.7612 28.85H90.2212L86.6212 32.43V32.15L90.6412 36ZM94.3332 36.16C93.7865 36.16 93.2832 36.0667 92.8232 35.88C92.3632 35.6933 91.9632 35.4333 91.6232 35.1C91.2832 34.76 91.0199 34.3633 90.8332 33.91C90.6465 33.45 90.5532 32.9533 90.5532 32.42C90.5532 31.8867 90.6465 31.3933 90.8332 30.94C91.0199 30.4867 91.2832 30.0933 91.6232 29.76C91.9632 29.42 92.3632 29.1567 92.8232 28.97C93.2832 28.7833 93.7865 28.69 94.3332 28.69C94.8799 28.69 95.3832 28.7833 95.8432 28.97C96.3032 29.1567 96.7032 29.42 97.0432 29.76C97.3832 30.0933 97.6465 30.4867 97.8332 30.94C98.0199 31.3933 98.1132 31.8867 98.1132 32.42C98.1132 32.9533 98.0199 33.45 97.8332 33.91C97.6465 34.3633 97.3832 34.76 97.0432 35.1C96.7032 35.4333 96.3032 35.6933 95.8432 35.88C95.3832 36.0667 94.8799 36.16 94.3332 36.16ZM94.3332 35.14C94.8399 35.14 95.2865 35.0233 95.6732 34.79C96.0599 34.5567 96.3632 34.2367 96.5832 33.83C96.8032 33.4167 96.9132 32.9467 96.9132 32.42C96.9132 31.8933 96.8032 31.4267 96.5832 31.02C96.3632 30.6133 96.0599 30.2933 95.6732 30.06C95.2865 29.8267 94.8399 29.71 94.3332 29.71C93.8332 29.71 93.3865 29.8267 92.9932 30.06C92.6065 30.2933 92.3032 30.6133 92.0832 31.02C91.8632 31.4267 91.7532 31.8933 91.7532 32.42C91.7532 32.9467 91.8632 33.4167 92.0832 33.83C92.3032 34.2367 92.6065 34.5567 92.9932 34.79C93.3865 35.0233 93.8332 35.14 94.3332 35.14ZM104.347 36V28.85H105.497V36H104.347ZM100.677 36H99.5267V28.85H100.677V36ZM100.577 32.81V31.82H104.447V32.81H100.577ZM110.7 36.16C110.154 36.16 109.65 36.0667 109.19 35.88C108.73 35.6933 108.33 35.4333 107.99 35.1C107.65 34.76 107.387 34.3633 107.2 33.91C107.014 33.45 106.92 32.9533 106.92 32.42C106.92 31.8867 107.014 31.3933 107.2 30.94C107.387 30.4867 107.65 30.0933 107.99 29.76C108.33 29.42 108.73 29.1567 109.19 28.97C109.65 28.7833 110.154 28.69 110.7 28.69C111.247 28.69 111.75 28.7833 112.21 28.97C112.67 29.1567 113.07 29.42 113.41 29.76C113.75 30.0933 114.014 30.4867 114.2 30.94C114.387 31.3933 114.48 31.8867 114.48 32.42C114.48 32.9533 114.387 33.45 114.2 33.91C114.014 34.3633 113.75 34.76 113.41 35.1C113.07 35.4333 112.67 35.6933 112.21 35.88C111.75 36.0667 111.247 36.16 110.7 36.16ZM110.7 35.14C111.207 35.14 111.654 35.0233 112.04 34.79C112.427 34.5567 112.73 34.2367 112.95 33.83C113.17 33.4167 113.28 32.9467 113.28 32.42C113.28 31.8933 113.17 31.4267 112.95 31.02C112.73 30.6133 112.427 30.2933 112.04 30.06C111.654 29.8267 111.207 29.71 110.7 29.71C110.2 29.71 109.754 29.8267 109.36 30.06C108.974 30.2933 108.67 30.6133 108.45 31.02C108.23 31.4267 108.12 31.8933 108.12 32.42C108.12 32.9467 108.23 33.4167 108.45 33.83C108.67 34.2367 108.974 34.5567 109.36 34.79C109.754 35.0233 110.2 35.14 110.7 35.14ZM120.134 35.29H119.284L116.454 29.4L117.014 29.38V36H115.894V28.85H117.274L119.984 34.53H119.454L122.164 28.85H123.514V36H122.394V29.38L122.954 29.4L120.134 35.29ZM125.298 36V28.85H126.448V35.42H125.708L130.068 28.85H131.308V36H130.158V29.42H130.878L126.518 36H125.298ZM134.241 36H133.091V28.85H134.241V36ZM139.391 36H137.781L133.991 32.29H134.141L137.511 28.85H138.971L135.371 32.43V32.15L139.391 36ZM140.435 36V28.85H141.585V35.42H140.845L145.205 28.85H146.445V36H145.295V29.42H146.015L141.655 36H140.435ZM150.031 36V35.03H150.921C151.148 35.03 151.341 34.9967 151.501 34.93C151.661 34.8567 151.804 34.7367 151.931 34.57C152.058 34.4033 152.188 34.1767 152.321 33.89L154.721 28.85H155.901L153.121 34.5C152.941 34.8667 152.751 35.16 152.551 35.38C152.358 35.6 152.134 35.76 151.881 35.86C151.628 35.9533 151.324 36 150.971 36H150.031ZM152.271 34.4L149.451 28.85H150.641L153.141 33.88L152.271 34.4ZM156.949 36V28.85H162.889V36H161.739V29.12L162.319 29.84H157.479L158.099 29.12V36H156.949ZM165.823 36H164.673V28.85H167.533C168.027 28.85 168.46 28.94 168.833 29.12C169.207 29.2933 169.497 29.54 169.703 29.86C169.917 30.1733 170.023 30.5433 170.023 30.97C170.023 31.39 169.917 31.76 169.703 32.08C169.497 32.4 169.207 32.65 168.833 32.83C168.46 33.0033 168.027 33.09 167.533 33.09H165.723V32.11H167.533C167.94 32.11 168.26 32.01 168.493 31.81C168.733 31.6033 168.853 31.3233 168.853 30.97C168.853 30.6167 168.733 30.34 168.493 30.14C168.26 29.9333 167.94 29.83 167.533 29.83H165.823V36ZM175.228 34.28H171.108V33.3H175.228V34.28ZM176.648 36H175.428L172.978 29.63H173.358L170.908 36H169.728L172.558 28.85H173.818L176.648 36ZM177.857 36V28.85H180.727C181.193 28.85 181.6 28.93 181.947 29.09C182.3 29.2433 182.57 29.46 182.757 29.74C182.95 30.02 183.047 30.3467 183.047 30.72C183.047 31.0733 182.95 31.3867 182.757 31.66C182.57 31.9267 182.3 32.1367 181.947 32.29C181.6 32.4367 181.193 32.51 180.727 32.51H179.107V32.01H180.867C181.367 32.01 181.803 32.09 182.177 32.25C182.55 32.41 182.84 32.6367 183.047 32.93C183.253 33.2167 183.357 33.5567 183.357 33.95C183.357 34.3567 183.253 34.7167 183.047 35.03C182.84 35.3367 182.55 35.5767 182.177 35.75C181.803 35.9167 181.367 36 180.867 36H177.857ZM179.007 35.03H180.867C181.28 35.03 181.603 34.9333 181.837 34.74C182.07 34.54 182.187 34.2633 182.187 33.91C182.187 33.5633 182.07 33.2933 181.837 33.1C181.603 32.9067 181.28 32.81 180.867 32.81H178.907V31.85H180.677C181.05 31.85 181.343 31.76 181.557 31.58C181.777 31.3933 181.887 31.14 181.887 30.82C181.887 30.5067 181.777 30.2633 181.557 30.09C181.343 29.91 181.05 29.82 180.677 29.82H179.007V35.03ZM183.857 36V35.01H184.417C184.604 35.01 184.737 34.97 184.817 34.89C184.904 34.81 184.961 34.6767 184.987 34.49L185.667 28.85H190.247V36H189.097V29.05L189.747 29.84H185.967L186.767 29.05L186.077 34.57C186.037 34.9033 185.957 35.1767 185.837 35.39C185.724 35.5967 185.564 35.75 185.357 35.85C185.157 35.95 184.901 36 184.587 36H183.857ZM196.947 36H192.027V28.85H196.947V29.83H193.177V35.02H196.947V36ZM196.757 32.86H193.077V31.88H196.757V32.86ZM203.116 36V28.85H204.266V36H203.116ZM199.446 36H198.296V28.85H199.446V36ZM199.346 32.81V31.82H203.216V32.81H199.346ZM206.06 36V28.85H207.21V35.42H206.47L210.83 28.85H212.07V36H210.92V29.42H211.64L207.28 36H206.06ZM217.923 36V29.83H216.213C215.8 29.83 215.476 29.9333 215.243 30.14C215.01 30.34 214.893 30.6167 214.893 30.97C214.893 31.3233 215.01 31.6033 215.243 31.81C215.476 32.01 215.8 32.11 216.213 32.11H218.023V33.09H216.213C215.72 33.09 215.283 33.0033 214.903 32.83C214.53 32.65 214.24 32.4 214.033 32.08C213.826 31.76 213.723 31.39 213.723 30.97C213.723 30.5433 213.826 30.1733 214.033 29.86C214.24 29.54 214.53 29.2933 214.903 29.12C215.283 28.94 215.72 28.85 216.213 28.85H219.073V36H217.923ZM213.233 36L215.643 32.67H216.923L214.603 36H213.233ZM76.89 49V41.85H78.04V48.42H77.3L81.66 41.85H82.9V49H81.75V42.42H82.47L78.11 49H76.89ZM86.6361 49V41.85H92.5761V49H91.4261V42.12L92.0061 42.84H87.1661L87.7861 42.12V49H86.6361ZM95.5107 49H94.3607V41.85H97.2207C97.714 41.85 98.1474 41.94 98.5207 42.12C98.894 42.2933 99.184 42.54 99.3907 42.86C99.604 43.1733 99.7107 43.5433 99.7107 43.97C99.7107 44.39 99.604 44.76 99.3907 45.08C99.184 45.4 98.894 45.65 98.5207 45.83C98.1474 46.0033 97.714 46.09 97.2207 46.09H95.4107V45.11H97.2207C97.6274 45.11 97.9474 45.01 98.1807 44.81C98.4207 44.6033 98.5407 44.3233 98.5407 43.97C98.5407 43.6167 98.4207 43.34 98.1807 43.14C97.9474 42.9333 97.6274 42.83 97.2207 42.83H95.5107V49ZM104.916 47.28H100.796V46.3H104.916V47.28ZM106.336 49H105.116L102.666 42.63H103.046L100.596 49H99.4157L102.246 41.85H103.506L106.336 49ZM107.544 49V41.85H110.414C110.881 41.85 111.288 41.93 111.634 42.09C111.988 42.2433 112.258 42.46 112.444 42.74C112.638 43.02 112.734 43.3467 112.734 43.72C112.734 44.0733 112.638 44.3867 112.444 44.66C112.258 44.9267 111.988 45.1367 111.634 45.29C111.288 45.4367 110.881 45.51 110.414 45.51H108.794V45.01H110.554C111.054 45.01 111.491 45.09 111.864 45.25C112.238 45.41 112.528 45.6367 112.734 45.93C112.941 46.2167 113.044 46.5567 113.044 46.95C113.044 47.3567 112.941 47.7167 112.734 48.03C112.528 48.3367 112.238 48.5767 111.864 48.75C111.491 48.9167 111.054 49 110.554 49H107.544ZM108.694 48.03H110.554C110.968 48.03 111.291 47.9333 111.524 47.74C111.758 47.54 111.874 47.2633 111.874 46.91C111.874 46.5633 111.758 46.2933 111.524 46.1C111.291 45.9067 110.968 45.81 110.554 45.81H108.594V44.85H110.364C110.738 44.85 111.031 44.76 111.244 44.58C111.464 44.3933 111.574 44.14 111.574 43.82C111.574 43.5067 111.464 43.2633 111.244 43.09C111.031 42.91 110.738 42.82 110.364 42.82H108.694V48.03ZM119.076 47.28H114.956V46.3H119.076V47.28ZM120.496 49H119.276L116.826 42.63H117.206L114.756 49H113.576L116.406 41.85H117.666L120.496 49Z"
          fill="#2F2F35"/>
</svg>
